<svg width="32" height="32" viewBox="0 0 32 32" fill="none" xmlns="http://www.w3.org/2000/svg">
<path d="M12 29.3332H20C26.6666 29.3332 29.3333 26.6665 29.3333 19.9998V11.9998C29.3333 5.33317 26.6666 2.6665 20 2.6665H12C5.33329 2.6665 2.66663 5.33317 2.66663 11.9998V19.9998C2.66663 26.6665 5.33329 29.3332 12 29.3332Z" stroke="#009917" stroke-width="1.25" stroke-linecap="round" stroke-linejoin="round"/>
<path d="M16.0001 8.2168C13.8867 8.2168 13.6212 8.22595 12.7916 8.26441C11.9638 8.30287 11.3979 8.4329 10.9016 8.62702C10.3906 8.82664 9.9566 9.09219 9.52256 9.52439C9.09036 9.9566 8.82298 10.3906 8.62519 10.9034C8.4329 11.3979 8.30104 11.9638 8.26258 12.7934C8.22595 13.6212 8.2168 13.8867 8.2168 16.0001C8.2168 18.1135 8.22595 18.3791 8.26441 19.2087C8.30287 20.0365 8.4329 20.6023 8.62702 21.0986C8.82664 21.6096 9.09219 22.0436 9.52439 22.4777C9.9566 22.9099 10.3906 23.1773 10.9034 23.375C11.3979 23.5673 11.9638 23.6992 12.7934 23.7377C13.6212 23.7743 13.8867 23.7834 16.0001 23.7834C18.1135 23.7834 18.3791 23.7743 19.2087 23.7358C20.0365 23.6974 20.6023 23.5673 21.0986 23.3732C21.6096 23.1736 22.0436 22.908 22.4777 22.4758C22.9099 22.0436 23.1773 21.6096 23.375 21.0968C23.5673 20.6023 23.6992 20.0365 23.7377 19.2068C23.7743 18.3791 23.7834 18.1135 23.7834 16.0001C23.7834 13.8867 23.7743 13.6212 23.7358 12.7916C23.6974 11.9638 23.5673 11.3979 23.3732 10.9016C23.1736 10.3906 22.908 9.9566 22.4758 9.52256C22.0436 9.09036 21.6096 8.82298 21.0968 8.62519C20.6023 8.4329 20.0365 8.30104 19.2068 8.26258C18.3791 8.22595 18.1135 8.2168 16.0001 8.2168Z" fill="#009917"/>
<path d="M16.0002 12.0039C13.7934 12.0039 12.0042 13.7932 12.0042 16C12.0042 18.2068 13.7934 19.996 16.0002 19.996C18.207 19.996 19.9962 18.2068 19.9962 16C19.9962 13.7932 18.207 12.0039 16.0002 12.0039ZM16.0002 18.595C14.5681 18.595 13.4051 17.4339 13.4051 16C13.4051 14.566 14.5662 13.4049 16.0002 13.4049C17.4342 13.4049 18.5952 14.566 18.5952 16C18.5952 17.4339 17.4323 18.595 16.0002 18.595Z" fill="#FCFEFF"/>
<path d="M20.1556 12.7786C20.6714 12.7786 21.0896 12.3605 21.0896 11.8446C21.0896 11.3288 20.6714 10.9106 20.1556 10.9106C19.6397 10.9106 19.2216 11.3288 19.2216 11.8446C19.2216 12.3605 19.6397 12.7786 20.1556 12.7786Z" fill="#F8FCFF"/>
</svg>
