<svg width="36" height="36" viewBox="0 0 36 36" fill="none" xmlns="http://www.w3.org/2000/svg">
<path fill-rule="evenodd" clip-rule="evenodd" d="M36.0005 18.0001C36.0005 27.9412 27.9416 36.0001 18.0005 36.0001C8.05936 36.0001 0.000488281 27.9412 0.000488281 18.0001C0.000488281 8.059 8.05936 0.00012207 18.0005 0.00012207C27.9416 0.00012207 36.0005 8.059 36.0005 18.0001ZM18.6455 13.2885C16.8947 14.0167 13.3957 15.5239 8.14829 17.8101C7.2962 18.149 6.84984 18.4805 6.80921 18.8046C6.74053 19.3524 7.42652 19.5681 8.36066 19.8618C8.48773 19.9018 8.61939 19.9432 8.75436 19.9871C9.67341 20.2858 10.9097 20.6353 11.5524 20.6492C12.1354 20.6618 12.786 20.4214 13.5044 19.9282C18.4072 16.6186 20.938 14.9459 21.0969 14.9098C21.209 14.8844 21.3644 14.8524 21.4696 14.9459C21.5749 15.0395 21.5645 15.2166 21.5534 15.2641C21.4854 15.5539 18.7926 18.0573 17.3991 19.3528C16.9647 19.7567 16.6566 20.0432 16.5936 20.1086C16.4525 20.2552 16.3086 20.3938 16.1704 20.5271C15.3166 21.3501 14.6763 21.9674 16.2059 22.9753C16.9409 23.4597 17.5291 23.8603 18.1159 24.2599C18.7567 24.6963 19.3959 25.1315 20.2229 25.6737C20.4336 25.8118 20.6348 25.9552 20.8308 26.0949C21.5766 26.6266 22.2466 27.1043 23.0743 27.0281C23.5553 26.9838 24.0521 26.5316 24.3045 25.1827C24.9008 21.9949 26.0729 15.0878 26.3438 12.2416C26.3675 11.9922 26.3377 11.6731 26.3137 11.533C26.2897 11.3929 26.2396 11.1933 26.0575 11.0455C25.8418 10.8705 25.5089 10.8336 25.36 10.8363C24.683 10.8482 23.6443 11.2094 18.6455 13.2885Z" fill="white"/>
</svg>
