<svg width="32" height="32" viewBox="0 0 32 32" fill="none" xmlns="http://www.w3.org/2000/svg">
<g clip-path="url(#clip0_47_6867)">
<path d="M12 29.3332H20C26.6667 29.3332 29.3334 26.6665 29.3334 19.9998V11.9998C29.3334 5.33317 26.6667 2.6665 20 2.6665H12C5.33335 2.6665 2.66669 5.33317 2.66669 11.9998V19.9998C2.66669 26.6665 5.33335 29.3332 12 29.3332Z" stroke="#009917" stroke-width="1.25" stroke-linecap="round" stroke-linejoin="round"/>
<path d="M22.6351 11.5709C22.6351 11.5052 22.6333 11.5018 22.5614 11.5035C22.3877 11.5052 22.2158 11.4849 22.0457 11.4596C21.4264 11.3702 19.4161 10.3567 19.0758 8.69891C19.0688 8.66686 18.9934 8.25537 18.9934 8.07998C18.9934 8.0024 18.9916 8.00072 18.9127 8.00072C18.8934 8.00072 18.8758 8.00072 18.8565 8.00072C18.0707 8.00072 17.283 8.00072 16.4971 8.00072C16.3393 8.00072 16.3603 7.98216 16.3603 8.13395C16.3603 11.4124 16.3603 14.6909 16.3603 17.9693C16.3603 18.0924 16.3568 18.2139 16.334 18.3336C16.2147 18.9677 15.8779 19.4652 15.306 19.8042C14.8114 20.0976 14.2728 20.182 13.701 20.0723C13.5203 20.0386 13.3519 19.9728 13.1835 19.9088C13.1694 19.897 13.1554 19.8851 13.1431 19.8733C13.087 19.8278 13.0238 19.789 12.9624 19.7485C12.2344 19.2645 11.8889 18.5916 11.9941 17.7501C12.1011 16.8968 12.6116 16.3166 13.4536 16.0181C13.7045 15.9287 13.9693 15.8916 14.2377 15.9068C14.4114 15.9152 14.5833 15.9372 14.75 15.9827C14.8079 15.9979 14.8394 15.9793 14.8429 15.9203C14.8447 15.9001 14.8447 15.8781 14.8447 15.8579C14.8447 15.2693 14.8219 13.9842 14.8184 13.9809C14.8201 13.8122 14.8201 13.6419 14.8236 13.4733C14.8254 13.4243 14.7991 13.4159 14.757 13.4109C14.4395 13.3754 14.122 13.367 13.8027 13.3906C13.3624 13.421 12.9344 13.5087 12.5186 13.652C11.8555 13.8814 11.2749 14.2355 10.7732 14.7077C10.3417 15.1142 10.0031 15.583 9.75577 16.1126C9.5172 16.6185 9.38213 17.1497 9.34353 17.7029C9.32775 17.9424 9.3295 18.1835 9.35406 18.4247C9.38563 18.7569 9.45229 19.0824 9.55754 19.4011C9.85927 20.3152 10.4101 21.064 11.1907 21.6593C11.2696 21.72 11.3468 21.7858 11.4416 21.8246C11.4819 21.8583 11.5205 21.892 11.5608 21.9258C11.6871 22.0168 11.8222 22.0961 11.9643 22.1619C12.8379 22.5767 13.7588 22.7454 14.7289 22.6324C15.9884 22.484 17.0374 21.9477 17.8619 21.0235C18.639 20.1533 19.0162 19.133 19.0232 17.9913C19.0337 16.3588 19.0249 14.7263 19.0267 13.0921C19.0267 13.0533 19.0039 12.9977 19.0477 12.9774C19.0828 12.9623 19.1179 13.0061 19.1512 13.028C19.7827 13.4277 20.4651 13.7161 21.2036 13.878C21.6334 13.9724 22.0667 14.0298 22.5088 14.0298C22.6474 14.0298 22.6666 14.023 22.6666 13.8898C22.6666 13.3097 22.6333 11.7244 22.6351 11.5709Z" fill="#009917"/>
</g>
<defs>
<clipPath id="clip0_47_6867">
<rect width="32" height="32" fill="white"/>
</clipPath>
</defs>
</svg>
