<svg width="36" height="36" viewBox="0 0 36 36" fill="none" xmlns="http://www.w3.org/2000/svg">
<path d="M17.5081 0.00079516C16.3395 0.00690955 15.1677 0.0711063 13.9858 0.202557C11.7257 0.456288 9.48582 0.878154 7.33628 1.77997C3.91779 3.2137 1.49371 5.64707 0.79059 9.18402C0.492603 10.6758 0.251534 12.189 0.114258 13.7114C-0.150248 16.6675 0.0138125 19.6328 0.931214 22.5462C1.65442 24.842 2.987 26.9054 5.32068 28.2444C6.30839 28.8099 7.61084 29.0851 8.29052 29.3724C8.48136 29.455 8.52824 29.5039 8.53828 29.5161C8.54833 29.5253 8.57511 29.5467 8.57176 29.7301C8.54833 31.601 8.57176 35.2205 8.57176 35.2205L8.57511 36H10.1052L10.353 35.7799C10.353 35.7799 14.2402 32.3652 15.6465 30.959C15.9009 30.7083 16.0315 30.5677 16.0583 30.5524C16.0817 30.5371 16.0416 30.528 16.3027 30.5219C18.1476 30.4882 19.9891 30.424 21.8306 30.3323C24.258 30.21 26.7323 29.9991 29.1129 29.0912C31.1854 28.2994 32.9164 27.0063 33.9644 25.0682C35.0358 23.0811 35.6083 20.9749 35.8226 18.7952C36.1775 15.1666 36.0536 11.5318 34.9554 7.94899C34.3092 5.84883 33.0101 4.07272 31.018 2.81935C28.6341 1.32142 25.9455 0.758931 23.3138 0.401262C21.777 0.193386 20.2301 0.0558215 18.6766 0.0130232C18.2882 0.00385196 17.8998 -0.00226164 17.5081 0.00079516ZM18.6297 1.57821C20.1062 1.61489 21.5828 1.74634 23.0627 1.9481C25.6006 2.29354 27.9946 2.81935 30.047 4.1094C31.711 5.15489 32.749 6.56723 33.3048 8.3678C34.3293 11.7183 34.4599 15.1513 34.115 18.6577C33.9175 20.6783 33.3918 22.5828 32.4242 24.3773C31.5704 25.9608 30.2378 26.9666 28.4499 27.6483C26.374 28.44 24.1174 28.651 21.7402 28.7702C19.9187 28.8619 18.094 28.9231 16.2692 28.9567C15.8105 28.9658 15.3619 29.0759 15.0438 29.2899C14.7257 29.5039 14.5817 29.7026 14.3842 29.8982C13.3798 30.9009 11.3775 32.6648 10.286 33.6308C10.2793 32.4631 10.2693 31.0507 10.286 29.7484C10.2927 29.348 10.1923 28.9383 9.94117 28.6143C9.69006 28.2903 9.34519 28.0946 9.01372 27.954C8.0461 27.5443 6.78049 27.2325 6.23138 26.9177C4.31288 25.8171 3.22472 24.1664 2.57852 22.1121C1.73143 19.425 1.57072 16.6584 1.82183 13.8429C1.95576 12.3816 2.18678 10.9173 2.47807 9.46526C3.08744 6.40521 5.0026 4.4793 8.04945 3.20147C9.97465 2.39442 12.0304 1.99701 14.1967 1.75551C15.6733 1.59043 17.1498 1.53847 18.6297 1.57821ZM18.9913 5.47894C18.2848 5.47894 17.5985 5.5523 16.9322 5.68681C16.4735 5.78464 16.1822 6.20344 16.286 6.62531C16.3898 7.04717 16.8518 7.31008 17.3139 7.21531C17.8529 7.1022 18.4154 7.04412 18.9913 7.04412C23.1765 7.04412 26.5515 10.1256 26.5515 13.9438C26.5515 14.4726 26.4879 14.9862 26.364 15.4814C26.2602 15.9002 26.5481 16.3221 27.0102 16.4169C27.4722 16.5116 27.9309 16.2457 28.0347 15.8238C28.1854 15.2185 28.2658 14.5918 28.2658 13.9438C28.2658 9.27878 24.104 5.47894 18.9913 5.47894ZM10.44 7.04717C10.2994 7.04106 10.1555 7.05023 10.0048 7.0808C8.44788 7.39567 6.90102 8.42588 6.85749 10.2662C6.90102 10.523 6.89767 10.7981 7.00147 11.0304C7.51039 12.1676 7.95235 13.3415 8.5885 14.4176C11.6856 19.6451 16.3697 23.2798 22.3395 25.5879C23.0526 25.863 23.7892 25.9211 24.5091 25.646C25.5002 25.2699 26.3406 24.6891 26.8997 23.8545C27.6664 22.7082 27.6765 21.9134 26.4142 21.0666C25.5872 20.5102 24.7736 19.9385 23.9366 19.3944C22.6609 18.569 21.2815 18.4253 20.3306 19.8743C20.2804 19.9477 20.2067 20.0088 20.1431 20.07C19.6542 20.5438 19.0549 20.66 18.4188 20.4215C16.0047 19.5136 14.1398 18.0493 13.0148 15.8697C12.3519 14.5888 12.5327 13.9468 13.7715 13.0939C13.8954 13.0114 14.0126 12.9227 14.1264 12.828C14.6688 12.3755 14.8128 11.8375 14.4913 11.2291C13.7648 9.84127 12.7972 8.60319 11.5717 7.53629C11.2403 7.24894 10.8619 7.06857 10.44 7.04717ZM18.9779 7.82671C18.5996 7.82671 18.2246 7.85422 17.8563 7.91231C17.5449 7.94899 17.2804 8.13852 17.1665 8.40448C17.0527 8.6735 17.1096 8.97614 17.3105 9.19624C17.5148 9.41329 17.8362 9.51417 18.1442 9.45303C18.4121 9.41329 18.6933 9.39189 18.9779 9.39189C21.7636 9.39189 24.0002 11.434 24.0002 13.9774C24.0002 14.2372 23.9767 14.494 23.9332 14.7386C23.8663 15.0198 23.9767 15.3133 24.2145 15.4998C24.4555 15.6832 24.787 15.7352 25.0816 15.6312C25.3729 15.5273 25.5805 15.2858 25.6207 15.0015C25.6843 14.6652 25.7144 14.3228 25.7144 13.9774C25.7144 10.5902 22.6877 7.82671 18.9779 7.82671ZM18.8574 10.1745C18.5493 10.1714 18.2614 10.3182 18.104 10.5627C17.95 10.8073 17.95 11.1069 18.104 11.3514C18.2614 11.596 18.5493 11.7427 18.8574 11.7397C20.287 11.7397 21.4288 12.7821 21.4288 14.0874C21.4254 14.3687 21.5861 14.6316 21.854 14.7753C22.1219 14.9159 22.45 14.9159 22.7178 14.7753C22.9857 14.6316 23.1464 14.3687 23.143 14.0874C23.143 11.9353 21.2145 10.1745 18.8574 10.1745Z" fill="white"/>
</svg>
